<?xml version="1.0" standalone="no"?>
<!DOCTYPE svg PUBLIC "-//W3C//DTD SVG 20010904//EN"
 "http://www.w3.org/TR/2001/REC-SVG-20010904/DTD/svg10.dtd">
<svg version="1.0" xmlns="http://www.w3.org/2000/svg"
 width="512.000000pt" height="512.000000pt" viewBox="0 0 512.000000 512.000000"
 preserveAspectRatio="xMidYMid meet">
<metadata>
Created by potrace 1.14, written by Peter Selinger 2001-2017
</metadata>
<g transform="translate(0.000000,512.000000) scale(0.100000,-0.100000)"
fill="#000000" stroke="none">
<path d="M2378 5116 c-1 -2 -34 -6 -73 -10 -38 -3 -97 -10 -130 -16 -33 -6
-76 -13 -95 -16 -70 -11 -305 -75 -399 -110 -121 -44 -372 -167 -471 -231 -80
-50 -211 -142 -220 -153 -3 -3 -15 -13 -27 -21 -36 -25 -171 -150 -244 -225
-362 -375 -602 -851 -684 -1359 -2 -11 -6 -36 -9 -55 -22 -131 -29 -543 -11
-650 3 -19 15 -87 25 -150 25 -150 79 -342 134 -483 169 -432 424 -778 801
-1086 164 -133 422 -282 640 -369 197 -78 421 -137 605 -158 30 -3 76 -9 102
-13 48 -8 441 -6 493 2 17 3 57 8 89 12 33 4 69 9 80 11 12 2 35 7 51 9 85 15
287 70 382 104 283 102 555 257 778 444 64 54 257 245 315 312 196 226 369
532 473 835 35 102 80 269 91 340 3 19 8 46 11 60 38 183 41 574 6 805 -23
149 -71 341 -119 470 -52 141 -72 187 -132 305 -212 414 -529 760 -930 1014
-246 155 -608 296 -875 341 -16 3 -39 7 -51 9 -12 2 -45 7 -74 11 -29 4 -62 9
-74 12 -23 5 -452 13 -458 9z m412 -420 c19 -3 53 -7 75 -10 197 -23 461 -107
668 -213 82 -42 263 -151 294 -177 3 -2 -148 -471 -221 -691 -19 -55 -55 -167
-81 -250 -27 -82 -50 -152 -51 -154 -4 -4 -235 162 -809 581 -38 28 -89 65
-113 82 -23 17 -71 52 -105 77 -34 25 -145 106 -247 179 -102 73 -216 157
-255 185 -38 28 -116 84 -172 125 -56 41 -102 77 -103 80 0 7 95 50 112 50 8
0 18 4 24 9 16 16 207 72 329 97 58 12 148 25 210 30 39 4 72 8 74 10 6 5 332
-3 371 -10z m-1052 -748 c252 -183 459 -337 461 -342 1 -4 -307 -233 -686
-508 -378 -275 -726 -528 -773 -562 -47 -34 -136 -99 -197 -144 l-113 -82 -7
28 c-15 59 -6 502 11 531 2 3 7 30 10 60 4 29 9 57 11 61 3 4 7 25 11 46 20
127 115 380 206 547 44 81 161 263 177 277 3 3 24 28 46 55 64 81 193 212 288
291 48 41 90 74 92 74 3 0 211 -150 463 -332z m2613 -208 c151 -227 287 -566
324 -805 3 -22 10 -71 16 -110 6 -38 12 -140 14 -225 4 -234 -18 -407 -82
-632 l-28 -98 -557 0 c-423 0 -558 3 -558 12 0 6 9 37 19 67 11 31 46 139 79
241 33 102 89 275 125 385 284 872 430 1322 447 1378 l12 38 60 -73 c33 -40
91 -120 129 -178z m-1403 -671 c213 -155 388 -282 389 -283 1 -1 -47 -152
-107 -336 -60 -184 -126 -389 -148 -455 l-39 -120 -483 0 -484 0 -52 160 c-28
88 -95 293 -147 455 -53 162 -93 297 -88 300 8 5 617 449 709 517 31 23 58 42
60 42 2 1 178 -126 390 -280z m-1480 -651 c29 -90 136 -419 329 -1013 30 -93
66 -201 78 -240 62 -186 225 -692 225 -697 0 -3 -17 -2 -37 3 -21 5 -46 12
-57 14 -47 11 -165 49 -201 65 -22 10 -51 21 -65 25 -45 13 -258 125 -337 177
-383 250 -662 587 -837 1012 -20 49 -36 94 -34 102 2 7 181 142 398 300 217
157 414 302 439 320 24 19 49 34 55 34 6 0 26 -46 44 -102z m2932 -966 c0 -2
-30 -48 -66 -101 -251 -363 -592 -634 -1000 -794 -93 -36 -242 -82 -303 -92
-19 -3 -37 -7 -40 -9 -3 -2 -26 -7 -51 -10 -25 -3 -56 -8 -70 -10 -71 -13
-112 -17 -210 -22 l-108 -5 -22 68 c-27 87 -225 696 -255 788 -13 39 -32 98
-43 131 l-20 62 1094 -1 c602 0 1094 -2 1094 -5z"/>
</g>
</svg>
